<?xml version="1.0" encoding="utf-8"?>
<!-- Generator: Adobe Illustrator 16.0.0, SVG Export Plug-In . SVG Version: 6.00 Build 0)  -->
<!DOCTYPE svg PUBLIC "-//W3C//DTD SVG 1.1//EN" "http://www.w3.org/Graphics/SVG/1.1/DTD/svg11.dtd">
<svg version="1.1" id="Layer_1" xmlns="http://www.w3.org/2000/svg" xmlns:xlink="http://www.w3.org/1999/xlink" x="0px" y="0px"
	 width="24px" height="24px" viewBox="0 0 24 24" enable-background="new 0 0 24 24" xml:space="preserve">
<path fill="none" d="M23.813,12.016c0,6.539-5.305,11.844-11.844,11.844c-6.542,0-11.845-5.306-11.845-11.844
	c0-6.542,5.303-11.845,11.845-11.845C18.508,0.171,23.813,5.475,23.813,12.016z"/>
<path fill="#FFFFFF" d="M11.98,0.262c-4.652,0-8.424,3.771-8.424,8.424c0,1.169,0.238,2.284,0.669,3.295
	c0.162,0.38,0.351,0.746,0.565,1.096l-0.018,0.04l5.747,10.176c0,0,0.731,1.07,1.266,0V17.11l-0.002-0.002
	c0.066,0.002,0.131,0.002,0.197,0.002c4.653,0,8.424-3.771,8.424-8.424C20.404,4.034,16.633,0.262,11.98,0.262z M12.174,11.933
	c-0.453,0-0.89-0.068-1.297-0.191c-0.715,0.47-2.27,0.902-2.27,0.902c0.5-0.768,0.221-2.277,0.221-2.277
	c0.024,0.031,0.051,0.064,0.079,0.095C8.4,9.853,8.101,9.099,8.101,8.28c0-2.016,1.824-3.651,4.074-3.651
	c2.251,0,4.075,1.635,4.075,3.651C16.249,10.298,14.426,11.933,12.174,11.933z"/>
</svg>
